<svg width="379" height="96" viewBox="0 0 379 96" fill="none" xmlns="http://www.w3.org/2000/svg">
<path d="M1.01809 91.8118C0.914208 92.3542 1.26973 92.8782 1.81218 92.982L10.6515 94.6748C11.194 94.7786 11.7179 94.4231 11.8218 93.8807C11.9257 93.3383 11.5701 92.8143 11.0277 92.7105L3.17048 91.2058L4.67512 83.3486C4.779 82.8062 4.42348 82.2822 3.88106 82.1783C3.33864 82.0745 2.81471 82.43 2.71083 82.9724L1.01809 91.8118ZM358.259 1.6713C375.286 20.4682 379.535 35.6731 375.354 47.3671C371.151 59.1224 358.264 67.8454 339.762 73.2326C302.827 83.9867 244.683 81.0846 194.326 63.8568L193.679 65.7491C244.322 83.0747 302.897 86.0494 340.321 75.1529C358.998 69.7148 372.701 60.7305 377.237 48.0404C381.796 35.2889 376.935 19.3101 359.741 0.328612L358.259 1.6713ZM194.326 63.8568C143.559 46.4888 95.3281 53.3319 59.8265 64.4899C42.0724 70.07 27.4866 76.7336 17.3366 82.0038C12.2611 84.6392 8.29311 86.927 5.591 88.5579C4.23993 89.3734 3.20517 90.0248 2.50656 90.4734C2.15726 90.6977 1.89197 90.8713 1.71319 90.9894C1.62378 91.0485 1.55602 91.0937 1.51019 91.1244C1.48725 91.1397 1.46982 91.1514 1.45791 91.1595C1.45195 91.1635 1.44737 91.1666 1.44417 91.1687C1.44258 91.1698 1.44124 91.1707 1.44041 91.1713C1.4394 91.172 1.43876 91.1724 2.00025 91.9999C2.56173 92.8274 2.56177 92.8273 2.56216 92.8271C2.56274 92.8267 2.56348 92.8262 2.56464 92.8254C2.56699 92.8238 2.57074 92.8213 2.57584 92.8178C2.58607 92.8109 2.6018 92.8004 2.62299 92.7862C2.6654 92.7578 2.72971 92.7149 2.81558 92.6582C2.98731 92.5447 3.24537 92.3758 3.58724 92.1563C4.27098 91.7172 5.29002 91.0757 6.62451 90.2702C9.29364 88.6591 13.2243 86.3926 18.2583 83.7788C28.3274 78.5506 42.8048 71.9363 60.4262 66.3979C95.6757 55.3191 143.446 48.5637 193.679 65.7491L194.326 63.8568Z" fill="#D5342A"/>
</svg>
