<svg width="40" height="44" viewBox="0 0 40 44" fill="none" xmlns="http://www.w3.org/2000/svg">
<path fill-rule="evenodd" clip-rule="evenodd" d="M0.00064993 3.99992C0.000689984 1.79081 1.79155 0 4.00065 0H36.0005C38.2097 0 40.0005 1.79088 40.0005 4V40C40.0005 42.2092 38.2096 44 36.0005 44H4C1.79083 44 -4.00536e-05 42.209 6.71873e-10 40L0.00064993 3.99992ZM36.0005 4H4.00065L4 40H36.0005V4ZM6.99996 8C6.99996 6.89543 7.89539 6 8.99996 6H31C32.1045 6 33 6.89543 33 8V17C33 18.1046 32.1045 19 31 19H8.99996C7.89539 19 6.99996 18.1046 6.99996 17V8ZM11 10V15H29V10H11ZM6.58575 24.5858C7.3668 23.8047 8.63313 23.8047 9.41417 24.5858L11.5 26.6716L13.5857 24.5858C14.3668 23.8047 15.6331 23.8047 16.4142 24.5858C17.1952 25.3668 17.1952 26.6332 16.4142 27.4142L14.3284 29.5L16.4142 31.5858C17.1952 32.3668 17.1952 33.6332 16.4142 34.4142C15.6331 35.1953 14.3668 35.1953 13.5857 34.4142L11.5 32.3284L9.41417 34.4142C8.63313 35.1953 7.3668 35.1953 6.58575 34.4142C5.8047 33.6332 5.8047 32.3668 6.58575 31.5858L8.67153 29.5L6.58575 27.4142C5.8047 26.6332 5.8047 25.3668 6.58575 24.5858ZM22 27C22 25.8954 22.8954 25 24 25H32C33.1045 25 34 25.8954 34 27C34 28.1046 33.1045 29 32 29H24C22.8954 29 22 28.1046 22 27ZM22 33C22 31.8954 22.8954 31 24 31H32C33.1045 31 34 31.8954 34 33C34 34.1046 33.1045 35 32 35H24C22.8954 35 22 34.1046 22 33Z" fill="#D5342A"/>
<path d="M11 15V10H29V15H11Z" fill="#F6D0CD"/>
<path fill-rule="evenodd" clip-rule="evenodd" d="M4.00065 4H36.0005V40H4L4.00065 4ZM6.99996 8C6.99996 6.89543 7.89539 6 8.99996 6H31C32.1045 6 33 6.89543 33 8V17C33 18.1046 32.1045 19 31 19H8.99996C7.89539 19 6.99996 18.1046 6.99996 17V8ZM6.58575 24.5858C7.3668 23.8047 8.63313 23.8047 9.41417 24.5858L11.5 26.6716L13.5857 24.5858C14.3668 23.8047 15.6331 23.8047 16.4142 24.5858C17.1952 25.3668 17.1952 26.6332 16.4142 27.4142L14.3284 29.5L16.4142 31.5858C17.1952 32.3668 17.1952 33.6332 16.4142 34.4142C15.6331 35.1953 14.3668 35.1953 13.5857 34.4142L11.5 32.3284L9.41417 34.4142C8.63313 35.1953 7.3668 35.1953 6.58575 34.4142C5.8047 33.6332 5.8047 32.3668 6.58575 31.5858L8.67153 29.5L6.58575 27.4142C5.8047 26.6332 5.8047 25.3668 6.58575 24.5858ZM22 27C22 25.8954 22.8954 25 24 25H32C33.1045 25 34 25.8954 34 27C34 28.1046 33.1045 29 32 29H24C22.8954 29 22 28.1046 22 27ZM22 33C22 31.8954 22.8954 31 24 31H32C33.1045 31 34 31.8954 34 33C34 34.1046 33.1045 35 32 35H24C22.8954 35 22 34.1046 22 33Z" fill="#F6D0CD"/>
</svg>
