<svg width="48" height="48" viewBox="0 0 48 48" fill="none" xmlns="http://www.w3.org/2000/svg">
<path d="M12 20C16.4333 20 26.6177 24.1569 28.6 26.8C29.3149 27.7532 29.4634 28.8676 29.1569 29.9605L32.8561 29.26L36.2619 28.6489L37.2605 28.4797L38.9397 28.2159L39.9173 28.0851L40.433 28.0308C40.6634 28.0104 40.8526 28 41 28C45.431 28 45.431 32.3975 42.4142 35.4142C37.9382 39.8902 31.48 44 26 44C23.4122 44 21.2889 43.5776 18.3657 42.642L15.9566 41.8491L15.2966 41.6379L14.4782 41.3901L14.0257 41.2658L13.4497 41.1319L13.1129 41.0727L12.7967 41.0335L12.4864 41.0107L12.1674 41.001L2 41C0.89543 41 0 40.1046 0 39C0 37.9743 0.77208 37.129 1.76676 37.0135L2 37L12.2466 37.0012L12.6888 37.0118L13.1058 37.036L13.5137 37.0772L13.9286 37.139L14.3664 37.2247L14.8433 37.3378L15.3754 37.4817L15.9786 37.6599L17.0521 37.9988L18.8825 38.6026C21.8296 39.585 23.7201 40 26 40C30.0915 40 35.8118 36.3598 39.5858 32.5858C39.7243 32.4472 39.8465 32.3125 39.9526 32.185L40.018 32.1L38.7326 32.2938L36.4313 32.6811L32.1186 33.4657L30.3521 33.7998L24.3922 34.9612L24.3494 34.9698C24.2927 34.9798 24.2358 34.9873 24.1788 34.9924L24.3922 34.9612C24.2938 34.9809 24.1943 34.993 24.0947 34.9978C24.0466 35.0003 23.9985 35.0008 23.9505 34.9996C23.918 34.9986 23.8847 34.997 23.8515 34.9945C23.7791 34.9891 23.7079 34.9799 23.6374 34.9669C23.6309 34.9657 23.6249 34.9645 23.619 34.9634C23.5349 34.947 23.4532 34.9257 23.373 34.8993L17.3675 32.8974C16.3197 32.5481 15.7533 31.4154 16.1026 30.3675C16.427 29.3945 17.4268 28.8367 18.4069 29.0416L18.6325 29.1026L23.6391 30.7741C23.8425 30.607 24.0592 30.4179 24.2738 30.2135C24.7338 29.7754 25.0689 29.3639 25.2272 29.0634L25.242 29.026L25.1076 28.899C24.4421 28.3241 23.0374 27.5614 21.3574 26.8094L20.32 26.361C19.7885 26.1391 19.2405 25.9217 18.6886 25.7142L17.5834 25.3139C15.5611 24.6101 13.5983 24.0874 12.3123 24.0099L12 24C9.26832 24 5.90856 25.9199 3.41421 28.4142C2.63317 29.1953 1.36684 29.1953 0.585786 28.4142C-0.195262 27.6332 -0.195262 26.3668 0.585786 25.5858C3.7581 22.4135 7.98168 20 12 20ZM40 4C42.1087 4 43.8363 5.63175 43.989 7.70147L44 8V24C44 25.1046 43.1046 26 42 26C40.9743 26 40.129 25.2279 40.0135 24.2332L40 24V8H35V15C35 16.0257 34.2279 16.871 33.2332 16.9865L33 17H23C21.8954 17 21 16.1046 21 15V8H16V16C16 17.1046 15.1046 18 14 18C12.9743 18 12.129 17.2279 12.0135 16.2332L12 16V8C12 5.89127 13.6317 4.16367 15.7015 4.01097L16 4H40ZM31 8H25V13H31V8Z" fill="white"/>
</svg>
