<svg width="56" height="56" viewBox="0 0 56 56" fill="none" xmlns="http://www.w3.org/2000/svg">
<path fill-rule="evenodd" clip-rule="evenodd" d="M37.3333 7.00001C30.8899 7.00001 25.6666 12.2234 25.6666 18.6667C25.6666 20.6411 26.1553 22.4947 27.0163 24.1197C27.496 25.0251 27.3289 26.1375 26.6044 26.8621L7.96642 45.5L10.4999 48.0335L29.1379 29.3956C29.8624 28.671 30.9748 28.504 31.8802 28.9837C33.5052 29.8447 35.3588 30.3333 37.3333 30.3333C43.7766 30.3333 48.9999 25.11 48.9999 18.6667C48.9999 17.8763 48.9216 17.1053 48.7725 16.3606L42.4832 22.6499C41.5719 23.5611 40.0946 23.5611 39.1833 22.6499L33.35 16.8166C32.4388 15.9054 32.4388 14.428 33.35 13.5168L39.6393 7.22744C38.8946 7.07831 38.1236 7.00001 37.3333 7.00001ZM20.9999 18.6667C20.9999 9.64602 28.3126 2.33334 37.3333 2.33334C40.0877 2.33334 42.6895 3.01709 44.9712 4.22607C45.6254 4.57269 46.0762 5.20919 46.1862 5.94131C46.2961 6.67343 46.0521 7.41429 45.5286 7.93778L38.2997 15.1667L40.8333 17.7002L48.0621 10.4713C48.5856 9.9478 49.3265 9.70379 50.0586 9.81376C50.7908 9.92372 51.4273 10.3746 51.7739 11.0288C52.9828 13.3104 53.6666 15.9122 53.6666 18.6667C53.6666 27.6873 46.3539 35 37.3333 35C35.201 35 33.1603 34.5902 31.2887 33.8444L12.1498 52.9833C11.2386 53.8945 9.76123 53.8945 8.85 52.9833L3.01667 47.1499C2.10545 46.2387 2.10545 44.7613 3.01667 43.8501L22.1556 24.7112C21.4097 22.8396 20.9999 20.7989 20.9999 18.6667Z" fill="#D5342A"/>
<path d="M25.667 18.6667C25.667 12.2233 30.8903 7 37.3336 7C38.124 7 38.895 7.0783 39.6397 7.22743L33.3504 13.5168C32.4392 14.428 32.4392 15.9054 33.3504 16.8166L39.1837 22.6499C40.0949 23.5611 41.5723 23.5611 42.4835 22.6499L48.7728 16.3606C48.922 17.1053 49.0003 17.8763 49.0003 18.6667C49.0003 25.11 43.7769 30.3333 37.3336 30.3333C35.3592 30.3333 33.5056 29.8447 31.8806 28.9837C30.9752 28.5039 29.8628 28.671 29.1382 29.3956L10.5003 48.0335L7.9668 45.5L26.6047 26.862C27.3293 26.1375 27.4964 25.0251 27.0166 24.1197C26.1556 22.4947 25.667 20.6411 25.667 18.6667Z" fill="#F6D0CD"/>
</svg>
