<svg width="56" height="56" viewBox="0 0 56 56" fill="none" xmlns="http://www.w3.org/2000/svg">
<path fill-rule="evenodd" clip-rule="evenodd" d="M7 7.00001C7 4.42268 9.08934 2.33334 11.6667 2.33334H44.3333C46.9107 2.33334 49 4.4227 49 7.00001V49C49 51.5774 46.9107 53.6667 44.3333 53.6667H11.6667C9.08936 53.6667 7 51.5774 7 49V7.00001ZM21 49H44.3333V7.00001H21V49ZM16.3333 7.00001V49H11.6667V7.00001H16.3333ZM25.6667 14C25.6667 12.7113 26.7113 11.6667 28 11.6667H37.3333C38.622 11.6667 39.6667 12.7113 39.6667 14C39.6667 15.2887 38.622 16.3333 37.3333 16.3333H28C26.7113 16.3333 25.6667 15.2887 25.6667 14ZM25.6667 23.3333C25.6667 22.0447 26.7113 21 28 21H37.3333C38.622 21 39.6667 22.0447 39.6667 23.3333C39.6667 24.622 38.622 25.6667 37.3333 25.6667H28C26.7113 25.6667 25.6667 24.622 25.6667 23.3333Z" fill="#D5342A"/>
<path fill-rule="evenodd" clip-rule="evenodd" d="M44.3333 49H21V7H44.3333V49ZM25.6666 14C25.6666 12.7113 26.7113 11.6667 28 11.6667H37.3333C38.622 11.6667 39.6666 12.7113 39.6666 14C39.6666 15.2887 38.622 16.3333 37.3333 16.3333H28C26.7113 16.3333 25.6666 15.2887 25.6666 14ZM25.6666 23.3333C25.6666 22.0447 26.7113 21 28 21H37.3333C38.622 21 39.6666 22.0447 39.6666 23.3333C39.6666 24.622 38.622 25.6667 37.3333 25.6667H28C26.7113 25.6667 25.6666 24.622 25.6666 23.3333Z" fill="#F6D0CD"/>
<path d="M16.3333 7V49H11.6666V7H16.3333Z" fill="#F6D0CD"/>
</svg>
