<svg width="48" height="48" viewBox="0 0 48 48" fill="none" xmlns="http://www.w3.org/2000/svg">
<path fill-rule="evenodd" clip-rule="evenodd" d="M2 4C2 2.89543 2.89543 2 4 2H12C13.1046 2 14 2.89543 14 4V16.7639L27.1056 10.2111C27.7255 9.90116 28.4618 9.93429 29.0515 10.2987C29.6411 10.6631 30 11.3068 30 12V16.7639L43.1056 10.2111C43.7255 9.90116 44.4618 9.93429 45.0515 10.2987C45.6411 10.6631 46 11.3068 46 12V44C46 45.1046 45.1046 46 44 46H4C2.89543 46 2 45.1046 2 44V4ZM6 6V42H42V15.2361L28.8944 21.7889C28.2745 22.0988 27.5382 22.0657 26.9485 21.7013C26.3589 21.3369 26 20.6932 26 20V15.2361L12.8944 21.7889C12.2745 22.0988 11.5382 22.0657 10.9485 21.7013C10.3589 21.3369 10 20.6932 10 20V6H6ZM10 28C10 26.8954 10.8954 26 12 26H20C21.1046 26 22 26.8954 22 28V36C22 37.1046 21.1046 38 20 38H12C10.8954 38 10 37.1046 10 36V28ZM14 30V34H18V30H14ZM26 28C26 26.8954 26.8954 26 28 26H36C37.1046 26 38 26.8954 38 28V36C38 37.1046 37.1046 38 36 38H28C26.8954 38 26 37.1046 26 36V28ZM30 30V34H34V30H30Z" fill="#D5342A"/>
<path fill-rule="evenodd" clip-rule="evenodd" d="M6 42V6H10V20C10 20.6932 10.3589 21.3369 10.9485 21.7013C11.5382 22.0657 12.2745 22.0988 12.8944 21.7889L26 15.2361V20C26 20.6932 26.3589 21.3369 26.9485 21.7013C27.5382 22.0657 28.2745 22.0988 28.8944 21.7889L42 15.2361V42H6ZM10 28C10 26.8954 10.8954 26 12 26H20C21.1046 26 22 26.8954 22 28V36C22 37.1046 21.1046 38 20 38H12C10.8954 38 10 37.1046 10 36V28ZM26 28C26 26.8954 26.8954 26 28 26H36C37.1046 26 38 26.8954 38 28V36C38 37.1046 37.1046 38 36 38H28C26.8954 38 26 37.1046 26 36V28Z" fill="#F6D0CD"/>
<path d="M14 34V30H18V34H14Z" fill="#F6D0CD"/>
<path d="M30 34V30H34V34H30Z" fill="#F6D0CD"/>
</svg>
