<svg width="44" height="44" viewBox="0 0 44 44" fill="none" xmlns="http://www.w3.org/2000/svg">
<path fill-rule="evenodd" clip-rule="evenodd" d="M0 2C0 0.89543 0.89543 0 2 0H10C11.1046 0 12 0.89543 12 2V14.7639L25.1056 8.21115C25.7255 7.90116 26.4618 7.93429 27.0515 8.2987C27.6411 8.66311 28 9.30684 28 10V14.7639L41.1056 8.21115C41.7255 7.90116 42.4618 7.93429 43.0515 8.2987C43.6411 8.66311 44 9.30684 44 10V42C44 43.1046 43.1046 44 42 44H2C0.89543 44 0 43.1046 0 42V2ZM4 4V40H40V13.2361L26.8944 19.7889C26.2745 20.0988 25.5382 20.0657 24.9485 19.7013C24.3589 19.3369 24 18.6932 24 18V13.2361L10.8944 19.7889C10.2745 20.0988 9.53817 20.0657 8.94854 19.7013C8.3589 19.3369 8 18.6932 8 18V4H4ZM8 26C8 24.8954 8.89543 24 10 24H18C19.1046 24 20 24.8954 20 26V34C20 35.1046 19.1046 36 18 36H10C8.89543 36 8 35.1046 8 34V26ZM12 28V32H16V28H12ZM24 26C24 24.8954 24.8954 24 26 24H34C35.1046 24 36 24.8954 36 26V34C36 35.1046 35.1046 36 34 36H26C24.8954 36 24 35.1046 24 34V26ZM28 28V32H32V28H28Z" fill="white"/>
</svg>
