<svg width="44" height="36" viewBox="0 0 44 36" fill="none" xmlns="http://www.w3.org/2000/svg">
<path d="M24.9677 17.3581C25.1653 16.2714 24.4445 15.2302 23.3578 15.0326C22.271 14.835 21.2298 15.5558 21.0323 16.6426L19.0323 27.6426C18.8347 28.7293 19.5555 29.7705 20.6422 29.9681C21.729 30.1657 22.7701 29.4449 22.9677 28.3581L24.9677 17.3581Z" fill="#D5342A"/>
<path d="M27.4636 15.7197C28.1707 14.8711 29.4318 14.7565 30.2804 15.4636L36.2804 20.4636C36.7121 20.8233 36.9725 21.3481 36.9979 21.9094C37.0234 22.4708 36.8116 23.0169 36.4142 23.4143L30.4142 29.4143C29.6332 30.1953 28.3668 30.1953 27.5858 29.4143C26.8047 28.6332 26.8047 27.3669 27.5858 26.5858L32.0372 22.1344L27.7196 18.5365C26.8711 17.8294 26.7564 16.5682 27.4636 15.7197Z" fill="#D5342A"/>
<path d="M16.2804 18.5365C17.1289 17.8294 17.2436 16.5682 16.5364 15.7197C15.8293 14.8711 14.5682 14.7565 13.7196 15.4636L7.71963 20.4636C7.28795 20.8233 7.02752 21.3481 7.00206 21.9094C6.97659 22.4708 7.18845 23.0169 7.58579 23.4143L13.5858 29.4143C14.3668 30.1953 15.6332 30.1953 16.4142 29.4143C17.1953 28.6332 17.1953 27.3669 16.4142 26.5858L11.9628 22.1344L16.2804 18.5365Z" fill="#D5342A"/>
<path fill-rule="evenodd" clip-rule="evenodd" d="M0 4C0 1.79086 1.79086 0 4 0H40C42.2091 0 44 1.79086 44 4V32C44 34.2091 42.2091 36 40 36H4C1.79086 36 0 34.2091 0 32V4ZM40 4V8H4V4H40ZM40 12H4V32H40V12Z" fill="#D5342A"/>
<path d="M40 8V4H4V8H40Z" fill="#"/>
</svg>
