<svg width="48" height="48" viewBox="0 0 48 48" fill="none" xmlns="http://www.w3.org/2000/svg">
<path fill-rule="evenodd" clip-rule="evenodd" d="M17.2283 3.07199C17.5735 2.41295 18.256 2 19 2H37C37.7656 2 38.4641 2.43711 38.7988 3.12572C39.1335 3.81434 39.0457 4.6336 38.5726 5.23564L30.1149 16H41C41.7944 16 42.5135 16.4702 42.8321 17.1979C43.1507 17.9256 43.0084 18.7728 42.4696 19.3566L18.4696 45.3566C17.8467 46.0314 16.8441 46.1953 16.0387 45.7538C15.2334 45.3124 14.8321 44.3792 15.0659 43.491L19.4056 27H8C7.30013 27 6.65117 26.6342 6.28886 26.0354C5.92654 25.4366 5.90359 24.692 6.22834 24.072L17.2283 3.07199ZM20.2101 6L11.3054 23H22C22.6202 23 23.2053 23.2877 23.584 23.7789C23.9626 24.2701 24.092 24.9092 23.9342 25.509L20.9782 36.7417L36.432 20H26C25.2344 20 24.5359 19.5629 24.2012 18.8743C23.8665 18.1857 23.9543 17.3664 24.4274 16.7644L32.8851 6H20.2101Z" fill="#D5342A"/>
<path d="M11.3052 23L20.2099 6H32.8849L24.4272 16.7644C23.9541 17.3664 23.8663 18.1857 24.201 18.8743C24.5357 19.5629 25.2341 20 25.9998 20H36.4318L20.978 36.7417L23.9339 25.509C24.0918 24.9092 23.9624 24.2701 23.5838 23.7789C23.2051 23.2877 22.62 23 21.9998 23H11.3052Z" fill="#F6D0CD"/>
</svg>
