<?xml version="1.0" ?><!DOCTYPE svg  PUBLIC '-//W3C//DTD SVG 1.1//EN'  'http://www.w3.org/Graphics/SVG/1.1/DTD/svg11.dtd'><svg height="512px" style="enable-background:new 0 0 512 512;" version="1.1" viewBox="0 0 512 512" width="512px" xml:space="preserve" xmlns="http://www.w3.org/2000/svg" xmlns:xlink="http://www.w3.org/1999/xlink"><g id="_x32_01-linkedin"><g><rect height="316.249" style="fill:#0274B3;" width="102.59" x="26.623" y="169.75"/><path d="M408.65,173.458c-1.092-0.341-2.123-0.715-3.268-1.037c-1.381-0.313-2.754-0.577-4.16-0.8    c-5.443-1.095-11.414-1.871-18.408-1.871c-59.805,0-97.746,43.617-110.238,60.461V169.75h-102.59v316.249h102.588V313.501    c0,0,77.525-108.273,110.24-28.754v201.252h102.563V272.588C485.377,224.804,452.717,184.986,408.65,173.458z" style="fill:#0274B3;"/><path d="M76.802,126.626c27.708,0,50.176-22.522,50.176-50.313c0-27.785-22.469-50.312-50.176-50.312    c-27.71,0-50.179,22.526-50.179,50.312C26.623,104.103,49.092,126.626,76.802,126.626z" style="fill:#0274B3;"/></g></g><g id="Layer_1"/></svg>