<svg width="56" height="56" viewBox="0 0 56 56" fill="none" xmlns="http://www.w3.org/2000/svg">
<path fill-rule="evenodd" clip-rule="evenodd" d="M2.33337 6.99999C2.33337 5.71133 3.37804 4.66666 4.66671 4.66666H35C36.2887 4.66666 37.3334 5.71133 37.3334 6.99999V49C37.3334 50.2887 36.2887 51.3333 35 51.3333H4.66671C3.37804 51.3333 2.33337 50.2887 2.33337 49V6.99999ZM16.3334 46.6667H32.6667V9.33332H16.3334V46.6667ZM11.6667 9.33332V46.6667H7.00004V9.33332H11.6667ZM39.6667 6.99999C39.6667 5.71133 40.7114 4.66666 42 4.66666H51.3334C52.622 4.66666 53.6667 5.71133 53.6667 6.99999V44.3333C53.6667 44.9522 53.4209 45.5457 52.9833 45.9832L48.3166 50.6499C47.4054 51.5611 45.928 51.5611 45.0168 50.6499L40.3501 45.9832C39.9125 45.5457 39.6667 44.9522 39.6667 44.3333V6.99999ZM44.3334 9.33332V43.3668L46.6667 45.7002L49 43.3668V9.33332H44.3334Z" fill="#D5342A"/>
<path d="M11.6667 9.33334V46.6667H7V9.33334H11.6667Z" fill="#F6D0CD"/>
<path d="M32.6667 46.6667H16.3333V9.33334H32.6667V46.6667Z" fill="#F6D0CD"/>
<path d="M44.3333 43.3668V9.33334H49V43.3668L46.6667 45.7002L44.3333 43.3668Z" fill="#F6D0CD"/>
</svg>
