<svg width="104" height="104" viewBox="0 0 104 104" fill="none" xmlns="http://www.w3.org/2000/svg">
<path d="M89.375 35.2172C87.7861 35.2172 86.3056 34.9211 84.9333 34.3289C83.5611 33.7366 82.3593 32.9234 81.328 31.8892C80.2938 30.8579 79.4806 29.6561 78.8883 28.2839C78.2961 26.9145 78 25.434 78 23.8422C78 22.2822 78.2961 20.8089 78.8883 19.4222C79.4806 18.0355 80.2938 16.8265 81.328 15.7952C82.3593 14.761 83.5611 13.9478 84.9333 13.3555C86.3027 12.7633 87.7832 12.4672 89.375 12.4672C90.935 12.4672 92.4083 12.7633 93.795 13.3555C95.1817 13.9478 96.3907 14.761 97.422 15.7952C98.4562 16.8265 99.2694 18.0355 99.8617 19.4222C100.454 20.8089 100.75 22.2822 100.75 23.8422C100.75 25.4311 100.454 26.9116 99.8617 28.2839C99.2694 29.6561 98.4562 30.8579 97.422 31.8892C96.3907 32.9234 95.1817 33.7366 93.795 34.3289C92.4083 34.9211 90.935 35.2172 89.375 35.2172V35.2172ZM89.375 18.9672C88.0201 18.9672 86.8689 19.441 85.9213 20.3885C84.9738 21.3361 84.5 22.4873 84.5 23.8422C84.5 25.1971 84.9738 26.3483 85.9213 27.2959C86.8689 28.2434 88.0201 28.7172 89.375 28.7172C90.7299 28.7172 91.8811 28.2434 92.8287 27.2959C93.7762 26.3483 94.25 25.1971 94.25 23.8422C94.25 22.4873 93.7762 21.3361 92.8287 20.3885C91.8811 19.441 90.7299 18.9672 89.375 18.9672ZM104 43.3422V67.5135C104 69.7495 103.577 71.8584 102.73 73.8402C101.884 75.8191 100.724 77.5438 99.2507 79.0142C97.7773 80.4875 96.0512 81.6474 94.0723 82.4939C92.0906 83.3403 89.9831 83.7635 87.75 83.7635C86.4644 83.7635 85.1529 83.6119 83.8153 83.3085C82.4778 83.0023 81.25 82.5271 80.132 81.8829C79.2856 84.6273 78.0506 87.1248 76.427 89.3752C74.8006 91.6285 72.8953 93.5583 70.7113 95.1645C68.5273 96.7737 66.1151 98.0173 63.4747 98.8955C60.8342 99.7767 58.0927 100.217 55.25 100.217C51.9336 100.217 48.8107 99.6423 45.8813 98.4925C42.952 97.3399 40.3448 95.7481 38.0597 93.7172C35.7774 91.6863 33.8823 89.2828 32.3743 86.5065C30.8663 83.7303 29.8928 80.7172 29.4537 77.4672H4.32033C3.133 77.4672 2.11611 77.044 1.26967 76.1975C0.423222 75.3511 0 74.3357 0 73.1512V29.7832C0 28.5988 0.423222 27.5833 1.26967 26.7369C2.11611 25.8904 3.13156 25.4672 4.316 25.4672H41.5393C40.5571 23.4016 40.066 21.235 40.066 18.9672C40.066 16.867 40.4632 14.8953 41.2577 13.0522C42.055 11.2062 43.1383 9.59709 44.5077 8.22487C45.8799 6.85554 47.489 5.7722 49.335 4.97487C51.1781 4.18043 53.1498 3.7832 55.25 3.7832C57.3502 3.7832 59.3219 4.18043 61.165 4.97487C63.011 5.7722 64.6201 6.85554 65.9923 8.22487C67.3617 9.59709 68.445 11.2062 69.2423 13.0522C70.0368 14.8953 70.434 16.867 70.434 18.9672C70.434 21.0674 70.0368 23.0391 69.2423 24.8822C68.445 26.7282 67.3617 28.3359 65.9923 29.7052C64.6201 31.0774 63.011 32.1608 61.165 32.9552C59.3219 33.7525 57.3502 34.1512 55.25 34.1512C54.7069 34.1512 54.1652 34.1165 53.625 34.0472C53.0819 33.9808 52.5402 33.897 52 33.7959V38.4672H99.125C100.48 38.4672 101.631 38.941 102.579 39.8885C103.526 40.8361 104 41.9873 104 43.3422ZM55.25 10.2832C54.0656 10.2832 52.9389 10.5114 51.87 10.9679C50.8069 11.4243 49.8853 12.0512 49.1053 12.8485C48.3253 13.643 47.7071 14.566 47.2507 15.6175C46.7942 16.6662 46.566 17.7828 46.566 18.9672C46.566 20.1516 46.7942 21.2783 47.2507 22.3472C47.71 23.4103 48.3282 24.3319 49.1053 25.1119C49.8853 25.8919 50.8083 26.5101 51.8743 26.9665C52.9403 27.423 54.0656 27.6512 55.25 27.6512C56.4344 27.6512 57.551 27.423 58.5997 26.9665C59.6512 26.5072 60.5757 25.889 61.373 25.1119C62.1646 24.3319 62.79 23.4089 63.2493 22.3429C63.7058 21.2769 63.934 20.1516 63.934 18.9672C63.934 17.7828 63.7058 16.6662 63.2493 15.6175C62.79 14.566 62.1631 13.6415 61.3687 12.8442C60.5742 12.0498 59.6512 11.4243 58.5997 10.9679C57.551 10.5114 56.4344 10.2832 55.25 10.2832V10.2832ZM30.0603 42.5275H39.8103V34.4069H12.194V42.5319H21.944V68.5319H30.069L30.0603 42.5275ZM74.75 74.2172V44.9672H52V73.1512C52 74.3357 51.5768 75.3511 50.7303 76.1975C49.8839 77.044 48.8684 77.4672 47.684 77.4672H36.0057C36.4448 79.8043 37.2479 81.971 38.415 83.9672C39.585 85.9634 41.0078 87.6823 42.6833 89.1239C44.3589 90.5597 46.2627 91.6849 48.3947 92.4995C50.5267 93.3113 52.8118 93.7172 55.25 93.7172C57.9251 93.7172 60.4471 93.2088 62.816 92.1919C65.1849 91.1779 67.2591 89.7825 69.0387 88.0059C70.8153 86.2263 72.2107 84.1608 73.2247 81.8092C74.2416 79.4548 74.75 76.9241 74.75 74.2172ZM97.5 67.5135V44.9672H81.25V74.6722C82.1311 75.5533 83.1292 76.2062 84.2443 76.6309C85.3623 77.0527 86.5309 77.2635 87.75 77.2635C89.1049 77.2635 90.3746 77.0093 91.559 76.5009C92.7434 75.9953 93.7762 75.302 94.6573 74.4209C95.5356 73.5398 96.2289 72.507 96.7373 71.3225C97.2458 70.1381 97.5 68.8684 97.5 67.5135V67.5135Z" fill="#727272"/>
</svg>
