<svg width="88" height="88" viewBox="0 0 88 88" fill="none" xmlns="http://www.w3.org/2000/svg">
<path fill-rule="evenodd" clip-rule="evenodd" d="M38.5003 3.66663C37.7764 3.66663 37.0687 3.8809 36.4664 4.28244L30.9664 7.94911C29.4957 8.92957 28.9338 10.8197 29.6301 12.4443L34.6353 24.1232L23.9523 65.0744C23.6044 66.4083 24.034 67.8246 25.0643 68.7405L41.5643 83.4071C42.9535 84.642 45.047 84.642 46.4363 83.4071L62.9363 68.7405C63.9666 67.8246 64.3962 66.4083 64.0482 65.0744L53.3653 24.1231L58.3705 12.4443C59.0667 10.8197 58.5049 8.92957 57.0342 7.94911L51.5342 4.28244C50.9319 3.8809 50.2242 3.66663 49.5003 3.66663H38.5003ZM46.6674 27.5H41.3331L31.6152 64.7519L44.0003 75.7608L56.3853 64.7519L46.6674 27.5ZM47.0825 20.1666L50.4286 12.359L48.3901 11H39.6104L37.5719 12.359L40.9181 20.1666H47.0825Z" fill="#D5342A"/>
<path d="M47.0825 20.1667L50.4286 12.359L48.3901 11H39.6104L37.5719 12.359L40.918 20.1667H47.0825Z" fill="#F6D0CD"/>
<path d="M46.6674 27.5H41.3331L31.6152 64.7519L44.0003 75.7608L56.3853 64.7519L46.6674 27.5Z" fill="#F6D0CD"/>
</svg>
