<svg width="48" height="48" viewBox="0 0 48 48" fill="none" xmlns="http://www.w3.org/2000/svg">
<path fill-rule="evenodd" clip-rule="evenodd" d="M21.0001 2C20.6052 2 20.2192 2.11688 19.8907 2.3359L16.8907 4.3359C16.0885 4.87069 15.782 5.90168 16.1618 6.78784L18.8919 13.1581L13.0648 35.4952C12.875 36.2227 13.1093 36.9953 13.6713 37.4948L22.6713 45.4948C23.4291 46.1684 24.571 46.1684 25.3288 45.4948L34.3288 37.4948C34.8908 36.9953 35.1251 36.2227 34.9353 35.4952L29.1082 13.1581L31.8383 6.78784C32.2181 5.90168 31.9117 4.87069 31.1095 4.3359L28.1095 2.3359C27.7809 2.11688 27.3949 2 27.0001 2H21.0001ZM25.4549 15H22.5453L17.2446 35.3192L24.0001 41.3241L30.7555 35.3192L25.4549 15ZM25.6813 11L27.5064 6.74128L26.3945 6H21.6056L20.4937 6.74128L22.3189 11H25.6813Z" fill="white"/>
</svg>
