<svg width="48" height="48" viewBox="0 0 48 48" fill="none" xmlns="http://www.w3.org/2000/svg">
<path fill-rule="evenodd" clip-rule="evenodd" d="M6 6C6 3.79086 7.79086 2 10 2H38C40.2092 2 42 3.79088 42 6V42C42 44.2092 40.2092 46 38 46H10C7.79088 46 6 44.2092 6 42V6ZM18 42H38V6H18V42ZM14 6V42H10V6H14ZM22 12C22 10.8954 22.8954 10 24 10H32C33.1046 10 34 10.8954 34 12C34 13.1046 33.1046 14 32 14H24C22.8954 14 22 13.1046 22 12ZM22 20C22 18.8954 22.8954 18 24 18H32C33.1046 18 34 18.8954 34 20C34 21.1046 33.1046 22 32 22H24C22.8954 22 22 21.1046 22 20Z" fill="#D5342A"/>
<path fill-rule="evenodd" clip-rule="evenodd" d="M38 42H18V6H38V42ZM22 12C22 10.8954 22.8954 10 24 10H32C33.1046 10 34 10.8954 34 12C34 13.1046 33.1046 14 32 14H24C22.8954 14 22 13.1046 22 12ZM22 20C22 18.8954 22.8954 18 24 18H32C33.1046 18 34 18.8954 34 20C34 21.1046 33.1046 22 32 22H24C22.8954 22 22 21.1046 22 20Z" fill="#F6D0CD"/>
<path d="M14 6V42H10V6H14Z" fill="#F6D0CD"/>
</svg>
