<svg width="208" height="64" viewBox="0 0 208 64" fill="none" xmlns="http://www.w3.org/2000/svg">
<rect width="208" height="64" rx="8" fill="white"/>
<circle cx="104" cy="32" r="14.5" fill="white" stroke="#D5342A" stroke-width="3"/>
<path d="M176.707 32.7071C177.098 32.3166 177.098 31.6834 176.707 31.2929L170.343 24.9289C169.953 24.5384 169.319 24.5384 168.929 24.9289C168.538 25.3195 168.538 25.9526 168.929 26.3431L174.586 32L168.929 37.6569C168.538 38.0474 168.538 38.6805 168.929 39.0711C169.319 39.4616 169.953 39.4616 170.343 39.0711L176.707 32.7071ZM144 33L176 33L176 31L144 31L144 33Z" fill="#D5342A"/>
<path d="M31.2929 31.2929C30.9024 31.6834 30.9024 32.3166 31.2929 32.7071L37.6569 39.0711C38.0474 39.4616 38.6805 39.4616 39.0711 39.0711C39.4616 38.6805 39.4616 38.0474 39.0711 37.6569L33.4142 32L39.0711 26.3431C39.4616 25.9526 39.4616 25.3195 39.0711 24.9289C38.6805 24.5384 38.0474 24.5384 37.6569 24.9289L31.2929 31.2929ZM64 31L32 31L32 33L64 33L64 31Z" fill="#808080"/>
</svg>
