<svg width="88" height="88" viewBox="0 0 88 88" fill="none" xmlns="http://www.w3.org/2000/svg">
<path d="M42.1954 47.672C42.5466 47.6739 42.888 47.6765 43.2199 47.6798L45.102 47.7094L46.7806 47.7608L48.278 47.8381C51.8134 48.0675 53.8596 48.5794 55.9899 49.6648C59.4395 51.4225 62.2442 54.2272 64.002 57.6769L64.181 58.0365L64.5068 58.7457L64.7918 59.4569C64.8361 59.5767 64.8787 59.6973 64.9198 59.8191L65.1486 60.5677C65.1838 60.696 65.2176 60.8262 65.25 60.9588L65.4286 61.7859C65.4558 61.9295 65.4817 62.0762 65.5064 62.2265L65.6408 63.1731L65.749 64.2221L65.8338 65.392L65.8978 66.7008L65.9606 68.9646L65.9966 72.6398L66.0001 77C66.0001 79.025 64.3585 80.6666 62.3334 80.6666H7.33342C5.30793 80.6666 3.66612 79.0243 3.66675 76.9988L3.66814 72.555L3.67995 70.4469L3.70948 68.5647L3.76086 66.8861L3.83824 65.3888C4.06764 61.8533 4.57954 59.8071 5.66496 57.6769C7.42264 54.2272 10.2273 51.4225 13.677 49.6647C15.9493 48.507 18.1259 48.0018 22.1163 47.7959L23.7015 47.7321L25.479 47.6921L27.4714 47.672H42.1954ZM74.323 49.6648C77.7727 51.4225 80.5774 54.2272 82.3351 57.6769L82.6824 58.3919C82.7366 58.51 82.7892 58.6278 82.84 58.7457L83.125 59.4569C83.1692 59.5767 83.2119 59.6973 83.253 59.8191L83.4818 60.5677C83.517 60.696 83.5508 60.8262 83.5832 60.9588L83.7617 61.7859C83.8161 62.0731 83.8654 62.3728 83.9102 62.6881L84.0311 63.6837L84.1273 64.7908L84.2309 66.7008L84.2938 68.9646L84.3249 71.6438L84.3332 77C84.3332 79.025 82.6916 80.6666 80.6666 80.6666C78.7862 80.6666 77.2364 79.2512 77.0246 77.4276L76.9999 77L76.9968 72.8663L76.9639 69.3658L76.9089 67.2846L76.8543 66.1198L76.7834 65.1107L76.6944 64.2377C76.6779 64.1025 76.6607 63.9722 76.6425 63.8463L76.523 63.1414C76.4577 62.8125 76.3839 62.5166 76.3007 62.2427L76.1214 61.7209L75.915 61.2386C75.8782 61.1604 75.8403 61.0831 75.8011 61.0061C74.8636 59.1663 73.4298 57.6322 71.669 56.5733L70.9937 56.1988C69.1894 55.2794 68.472 53.0715 69.3914 51.2671C70.3107 49.4628 72.5187 48.7454 74.323 49.6648ZM42.0687 55.0048H27.6043L25.0464 55.0352L22.9442 55.1011L21.764 55.1681L20.7384 55.2558L19.8483 55.3663L19.0745 55.5015C18.5932 55.6004 18.1767 55.7171 17.7995 55.8543L17.2599 56.0759L17.0062 56.1988C14.9365 57.2534 13.2536 58.9363 12.199 61.0061C12.1143 61.1725 12.0351 61.3439 11.9613 61.5235L11.7554 62.0901C11.66 62.3889 11.5758 62.7134 11.5017 63.0743L11.3664 63.8478L11.2559 64.7376L11.1682 65.7627L11.0749 67.596L11.0216 69.8413L11.0001 73.3333H58.6631L58.6522 70.9985L58.6306 69.3556L58.5752 67.27L58.5202 66.1035L58.4488 65.0934L58.3591 64.2201L58.2493 63.4641L58.1176 62.8056C58.0938 62.7029 58.0689 62.6035 58.043 62.5069L57.8752 61.9583L57.6809 61.4584L57.4679 61.0061C56.4133 58.9363 54.7304 57.2534 52.6607 56.1989C52.4943 56.1141 52.3229 56.035 52.1433 55.9612L51.5767 55.7552C51.2779 55.6599 50.9534 55.5757 50.5925 55.5015L49.819 55.3663L48.9293 55.2558L47.9043 55.1681L46.0712 55.0748L43.8262 55.0215L42.0687 55.0048ZM34.8334 7.33331C43.9461 7.33331 51.3334 14.7206 51.3334 23.8333C51.3334 32.946 43.9461 40.3333 34.8334 40.3333C25.7207 40.3333 18.3334 32.946 18.3334 23.8333C18.3334 14.7206 25.7207 7.33331 34.8334 7.33331ZM61.6733 9.69274C66.592 12.6566 69.6669 17.9813 69.6669 23.8333C69.6669 29.6853 66.592 35.01 61.6733 37.9739C59.9388 39.019 57.6854 38.4602 56.6403 36.7257C55.5951 34.9912 56.154 32.7379 57.8885 31.6927C60.6272 30.0425 62.3336 27.0876 62.3336 23.8333C62.3336 20.5791 60.6272 17.6242 57.8885 15.9739C56.154 14.9287 55.5951 12.6754 56.6403 10.9409C57.6854 9.20641 59.9388 8.64759 61.6733 9.69274ZM34.8334 14.6666C29.7708 14.6666 25.6668 18.7707 25.6668 23.8333C25.6668 28.8959 29.7708 33 34.8334 33C39.896 33 44.0001 28.8959 44.0001 23.8333C44.0001 18.7707 39.896 14.6666 34.8334 14.6666Z" fill="#D5342A"/>
<path d="M34.8333 14.6667C29.7707 14.6667 25.6667 18.7707 25.6667 23.8334C25.6667 28.896 29.7707 33 34.8333 33C39.896 33 44 28.896 44 23.8334C44 18.7707 39.896 14.6667 34.8333 14.6667Z" fill="#F6D0CD"/>
<path d="M42.0686 55.0048H27.6042L25.0464 55.0353L22.9441 55.1012L21.7639 55.1681L20.7383 55.2558L19.8482 55.3663L19.0745 55.5016C18.5932 55.6004 18.1766 55.7171 17.7994 55.8543L17.2598 56.0759L17.0061 56.1989C14.9364 57.2535 13.2536 58.9363 12.1989 61.0062C12.1142 61.1725 12.035 61.3439 11.9612 61.5235L11.7553 62.0901C11.6599 62.3889 11.5757 62.7134 11.5016 63.0743L11.3663 63.8479L11.2558 64.7376L11.1681 65.7627L11.0748 67.596L11.0215 69.8413L11 73.3334H58.663L58.6522 70.9985L58.6305 69.3556L58.5751 67.27L58.5201 66.1036L58.4487 65.0935L58.359 64.2202L58.2492 63.4641L58.1175 62.8057C58.0937 62.703 58.0688 62.6035 58.0429 62.507L57.8751 61.9583L57.6808 61.4584L57.4678 61.0062C56.4132 58.9364 54.7303 57.2535 52.6606 56.1989C52.4942 56.1141 52.3229 56.035 52.1433 55.9612L51.5766 55.7553C51.2778 55.6599 50.9533 55.5757 50.5925 55.5016L49.819 55.3663L48.9293 55.2558L47.9042 55.1681L46.0712 55.0749L43.8261 55.0215L42.0686 55.0048Z" fill="#F6D0CD"/>
</svg>
