<svg width="48" height="48" viewBox="0 0 48 48" fill="none" xmlns="http://www.w3.org/2000/svg">
<path fill-rule="evenodd" clip-rule="evenodd" d="M16 2C17.1046 2 18 2.89543 18 4V12H30V4C30 2.89543 30.8954 2 32 2C33.1046 2 34 2.89543 34 4V12H42C43.1046 12 44 12.8954 44 14V24C44 24.3105 43.9277 24.6167 43.7889 24.8944C41.6702 29.1317 38.9609 32.4298 35.6094 34.6641C35.375 34.8204 35.1379 34.9711 34.8983 35.1163L33.9901 44.199C33.8878 45.2214 33.0275 46 32 46H16C14.9725 46 14.1122 45.2214 14.0099 44.199L13.1017 35.1163C12.8621 34.9711 12.625 34.8204 12.3906 34.6641C9.03913 32.4298 6.32978 29.1317 4.21115 24.8944C4.07229 24.6167 4 24.3105 4 24V14C4 12.8954 4.89543 12 6 12H14V4C14 2.89543 14.8954 2 16 2ZM17.3119 37.0188L17.81 42H30.19L30.6881 37.0188C28.6018 37.676 26.3682 38 24 38C21.6318 38 19.3982 37.676 17.3119 37.0188ZM8 16V23.5201C9.84073 27.0676 12.0592 29.6357 14.6094 31.3359C17.2454 33.0932 20.35 34 24 34C27.65 34 30.7546 33.0932 33.3906 31.3359C35.9408 29.6357 38.1593 27.0676 40 23.5201V16H8ZM20 24C20 22.8954 20.8954 22 22 22H26C27.1046 22 28 22.8954 28 24C28 25.1046 27.1046 26 26 26H22C20.8954 26 20 25.1046 20 24Z" fill="#D5342A"/>
<path fill-rule="evenodd" clip-rule="evenodd" d="M8 23.5201V16H40V23.5201C38.1593 27.0676 35.9408 29.6357 33.3906 31.3359C30.7546 33.0932 27.65 34 24 34C20.35 34 17.2454 33.0932 14.6094 31.3359C12.0592 29.6357 9.84073 27.0676 8 23.5201ZM20 24C20 22.8954 20.8954 22 22 22H26C27.1046 22 28 22.8954 28 24C28 25.1046 27.1046 26 26 26H22C20.8954 26 20 25.1046 20 24Z" fill="#F6D0CD"/>
</svg>
