<svg width="48" height="48" viewBox="0 0 48 48" fill="none" xmlns="http://www.w3.org/2000/svg">
<path d="M19 26C19 27.1046 18.1046 28 17 28C15.8954 28 15 27.1046 15 26C15 24.8954 15.8954 24 17 24C18.1046 24 19 24.8954 19 26Z" fill="#D5342A"/>
<path d="M31 28C32.1046 28 33 27.1046 33 26C33 24.8954 32.1046 24 31 24C29.8954 24 29 24.8954 29 26C29 27.1046 29.8954 28 31 28Z" fill="#D5342A"/>
<path d="M18 34C18 32.8954 18.8954 32 20 32H28C29.1046 32 30 32.8954 30 34C30 35.1046 29.1046 36 28 36H20C18.8954 36 18 35.1046 18 34Z" fill="#D5342A"/>
<path fill-rule="evenodd" clip-rule="evenodd" d="M24 4C21.7909 4 20 5.79086 20 8C20 9.48056 20.8044 10.7733 22 11.4649V16H11C8.79086 16 7 17.7909 7 20V40C7 42.2091 8.79086 44 11 44H37C39.2091 44 41 42.2091 41 40V20C41 17.7909 39.2091 16 37 16H26V11.4649C27.1956 10.7733 28 9.48056 28 8C28 5.79086 26.2091 4 24 4ZM11 20H37V40H11V20Z" fill="#D5342A"/>
<path d="M6 26C6 24.8954 5.10457 24 4 24C2.89543 24 2 24.8954 2 26V34C2 35.1046 2.89543 36 4 36C5.10457 36 6 35.1046 6 34V26Z" fill="#D5342A"/>
<path d="M44 24C45.1046 24 46 24.8954 46 26V34C46 35.1046 45.1046 36 44 36C42.8954 36 42 35.1046 42 34V26C42 24.8954 42.8954 24 44 24Z" fill="#D5342A"/>
<path fill-rule="evenodd" clip-rule="evenodd" d="M37 40V20H11V40H37ZM19 26C19 27.1046 18.1046 28 17 28C15.8954 28 15 27.1046 15 26C15 24.8954 15.8954 24 17 24C18.1046 24 19 24.8954 19 26ZM31 28C32.1046 28 33 27.1046 33 26C33 24.8954 32.1046 24 31 24C29.8954 24 29 24.8954 29 26C29 27.1046 29.8954 28 31 28ZM18 34C18 32.8954 18.8954 32 20 32H28C29.1046 32 30 32.8954 30 34C30 35.1046 29.1046 36 28 36H20C18.8954 36 18 35.1046 18 34Z" fill="#F6D0CD"/>
</svg>
