<svg width="88" height="88" viewBox="0 0 88 88" fill="none" xmlns="http://www.w3.org/2000/svg">
<path d="M7.33329 84.3339C5.30825 84.3339 3.66663 82.6922 3.66663 80.6672V60.5005C3.66663 56.4504 6.94986 53.1672 11 53.1672H18.3333V44.0005C18.3333 42.9278 18.8024 41.9172 19.603 41.2257L19.9661 40.9497L40.3333 27.372V11.0005C40.3333 10.3474 40.5041 9.73413 40.8034 9.20297C41.1626 8.53227 41.7518 7.74906 42.6322 6.99436C46.0924 4.02855 51.1522 4.02855 57.0339 7.94968L57.6287 8.335C60.4987 10.1369 61.8286 10.0959 62.5952 9.43881L62.739 9.31626L62.7204 9.36074C64.4507 5.90007 69.6666 7.13137 69.6666 11.0005V22.0005C69.6666 22.5698 69.5341 23.1312 69.2795 23.6403C68.9243 24.3507 68.3144 25.1952 67.3677 26.0067C63.9076 28.9725 58.8477 28.9725 52.9661 25.0514L52.3712 24.6661C49.8019 23.0529 48.4668 22.9168 47.6653 23.3774L47.6666 27.372L68.0339 40.9497C68.9264 41.5447 69.5071 42.4956 69.6383 43.5453L69.6666 44.0005V53.1672H77C80.866 53.1672 84.0332 56.1587 84.3132 59.9532L84.3333 60.5005V77.0005C84.3333 81.0507 81.0501 84.3339 77 84.3339H7.33329ZM44 33.7412L25.6666 45.9622V56.8339C25.6666 58.7143 24.2511 60.2641 22.4276 60.4759L22 60.5005H11V77.0005L33 77.0003V56.8339C33 54.9535 34.4154 53.4037 36.239 53.1919L36.6666 53.1672H51.3333C53.2137 53.1672 54.7635 54.5827 54.9753 56.4063L55 56.8339V77.0003L77 77.0005V60.5005H66C63.9749 60.5005 62.3333 58.8589 62.3333 56.8339V45.9622L44 33.7412ZM47.6666 60.5005H40.3333V77.0003H47.6666V60.5005ZM52.4096 13.6902C49.8976 12.1062 48.5575 11.9249 47.7437 12.3352L47.6666 12.3755V15.9102L47.9887 15.8864C50.443 15.7788 53.2408 16.5915 56.2714 18.4604L57.5903 19.3109C60.1023 20.8948 61.4425 21.0761 62.2562 20.6659L62.3333 20.6182V17.0872L62.0112 17.1147C59.5569 17.2223 56.7592 16.4095 53.7285 14.5407L52.4096 13.6902Z" fill="#D5342A"/>
<path d="M44 33.7412L25.6667 45.9622V56.8339C25.6667 58.7143 24.2512 60.2641 22.4276 60.4759L22 60.5005H11V77.0005L33 77.0003V56.8339C33 54.9535 34.4155 53.4037 36.2391 53.1919L36.6667 53.1672H51.3333C53.2137 53.1672 54.7635 54.5827 54.9753 56.4063L55 56.8339V77.0003L77 77.0005V60.5005H66C63.975 60.5005 62.3333 58.8589 62.3333 56.8339V45.9622L44 33.7412Z" fill="#F6D0CD"/>
<path d="M47.6667 60.5005H40.3333V77.0003H47.6667V60.5005Z" fill="#F6D0CD"/>
</svg>
