<svg width="44" height="44" viewBox="0 0 44 44" fill="none" xmlns="http://www.w3.org/2000/svg">
<path d="M11 8H9C8.4477 8 8 8.4477 8 9V11C8 11.5523 8.4477 12 9 12H11C11.5523 12 12 11.5523 12 11V9C12 8.4477 11.5523 8 11 8Z" fill="white"/>
<path d="M17 8H19C19.5523 8 20 8.4477 20 9V11C20 11.5523 19.5523 12 19 12H17C16.4477 12 16 11.5523 16 11V9C16 8.4477 16.4477 8 17 8Z" fill="white"/>
<path fill-rule="evenodd" clip-rule="evenodd" d="M0 2C0 0.89543 0.89543 0 2 0H42C43.1046 0 44 0.89543 44 2V18C44 19.1046 43.1046 20 42 20H2C0.89543 20 0 19.1046 0 18V2ZM4 4V16H40V4H4Z" fill="white"/>
<path d="M11 32H9C8.4477 32 8 32.4477 8 33V35C8 35.5523 8.4477 36 9 36H11C11.5523 36 12 35.5523 12 35V33C12 32.4477 11.5523 32 11 32Z" fill="white"/>
<path d="M19 32H17C16.4477 32 16 32.4477 16 33V35C16 35.5523 16.4477 36 17 36H19C19.5523 36 20 35.5523 20 35V33C20 32.4477 19.5523 32 19 32Z" fill="white"/>
<path fill-rule="evenodd" clip-rule="evenodd" d="M0 26C0 24.8954 0.89543 24 2 24H42C43.1046 24 44 24.8954 44 26V42C44 43.1046 43.1046 44 42 44H2C0.89543 44 0 43.1046 0 42V26ZM4 28V40H40V28H4Z" fill="white"/>
</svg>
