<svg width="48" height="48" viewBox="0 0 48 48" fill="none" xmlns="http://www.w3.org/2000/svg">
<path d="M13 10H11C10.4477 10 10 10.4477 10 11V13C10 13.5523 10.4477 14 11 14H13C13.5523 14 14 13.5523 14 13V11C14 10.4477 13.5523 10 13 10Z" fill="#D5342A"/>
<path d="M19 10H21C21.5523 10 22 10.4477 22 11V13C22 13.5523 21.5523 14 21 14H19C18.4477 14 18 13.5523 18 13V11C18 10.4477 18.4477 10 19 10Z" fill="#D5342A"/>
<path fill-rule="evenodd" clip-rule="evenodd" d="M2 4C2 2.89543 2.89543 2 4 2H44C45.1046 2 46 2.89543 46 4V20C46 21.1046 45.1046 22 44 22H4C2.89543 22 2 21.1046 2 20V4ZM6 6V18H42V6H6Z" fill="#D5342A"/>
<path d="M13 34H11C10.4477 34 10 34.4477 10 35V37C10 37.5523 10.4477 38 11 38H13C13.5523 38 14 37.5523 14 37V35C14 34.4477 13.5523 34 13 34Z" fill="#D5342A"/>
<path d="M21 34H19C18.4477 34 18 34.4477 18 35V37C18 37.5523 18.4477 38 19 38H21C21.5523 38 22 37.5523 22 37V35C22 34.4477 21.5523 34 21 34Z" fill="#D5342A"/>
<path fill-rule="evenodd" clip-rule="evenodd" d="M2 28C2 26.8954 2.89543 26 4 26H44C45.1046 26 46 26.8954 46 28V44C46 45.1046 45.1046 46 44 46H4C2.89543 46 2 45.1046 2 44V28ZM6 30V42H42V30H6Z" fill="#D5342A"/>
<path fill-rule="evenodd" clip-rule="evenodd" d="M6 18V6H42V18H6ZM13 10H11C10.4477 10 10 10.4477 10 11V13C10 13.5523 10.4477 14 11 14H13C13.5523 14 14 13.5523 14 13V11C14 10.4477 13.5523 10 13 10ZM19 10H21C21.5523 10 22 10.4477 22 11V13C22 13.5523 21.5523 14 21 14H19C18.4477 14 18 13.5523 18 13V11C18 10.4477 18.4477 10 19 10Z" fill="#F6D0CD"/>
<path fill-rule="evenodd" clip-rule="evenodd" d="M6 42V30H42V42H6ZM13 34H11C10.4477 34 10 34.4477 10 35V37C10 37.5523 10.4477 38 11 38H13C13.5523 38 14 37.5523 14 37V35C14 34.4477 13.5523 34 13 34ZM21 34H19C18.4477 34 18 34.4477 18 35V37C18 37.5523 18.4477 38 19 38H21C21.5523 38 22 37.5523 22 37V35C22 34.4477 21.5523 34 21 34Z" fill="#F6D0CD"/>
</svg>
