<svg width="88" height="88" viewBox="0 0 88 88" fill="none" xmlns="http://www.w3.org/2000/svg">
<path d="M44.0001 3.66669C66.2756 3.66669 84.3334 21.7245 84.3334 44C84.3334 66.2755 66.2756 84.3334 44.0001 84.3334C21.7246 84.3334 3.66675 66.2755 3.66675 44C3.66675 21.7245 21.7246 3.66669 44.0001 3.66669ZM44.0001 11C25.7747 11 11.0001 25.7746 11.0001 44C11.0001 62.2254 25.7747 77 44.0001 77C62.2255 77 77.0001 62.2254 77.0001 44C77.0001 25.7746 62.2255 11 44.0001 11ZM58.4732 53.5538C60.2844 54.4594 61.0186 56.6619 60.113 58.4731C59.4619 59.7753 58.2265 61.5194 56.2902 63.2405C53.0718 66.1014 48.9584 67.8334 44.0001 67.8334C39.0418 67.8334 34.9284 66.1014 31.7099 63.2405C29.7737 61.5194 28.5383 59.7753 27.8872 58.4731C26.9816 56.6619 27.7157 54.4594 29.527 53.5538C31.2088 52.7128 33.228 53.2858 34.233 54.8221L34.4463 55.1936C34.7119 55.7247 35.4244 56.7306 36.5819 57.7595C38.5197 59.482 40.9375 60.5 44.0001 60.5C47.0626 60.5 49.4805 59.482 51.4182 57.7595C52.4104 56.8776 53.0756 56.0126 53.4127 55.449L53.5538 55.1936C54.4595 53.3823 56.6619 52.6482 58.4732 53.5538ZM56.8334 29.3334C58.7138 29.3334 60.2636 30.7488 60.4754 32.5724L60.5001 33V40.3334C60.5001 42.3584 58.8585 44 56.8334 44C54.953 44 53.4032 42.5845 53.1914 40.761L53.1667 40.3334V33C53.1667 30.975 54.8084 29.3334 56.8334 29.3334ZM31.1667 29.3334C33.0471 29.3334 34.5969 30.7488 34.8087 32.5724L34.8334 33V40.3334C34.8334 42.3584 33.1918 44 31.1667 44C29.2863 44 27.7366 42.5845 27.5247 40.761L27.5001 40.3334V33C27.5001 30.975 29.1417 29.3334 31.1667 29.3334Z" fill="#D5342A"/>
<path fill-rule="evenodd" clip-rule="evenodd" d="M44 11C25.7746 11 11 25.7746 11 44C11 62.2254 25.7746 77 44 77C62.2254 77 77 62.2254 77 44C77 25.7746 62.2254 11 44 11ZM60.1129 58.4731C61.0185 56.6619 60.2844 54.4594 58.4731 53.5538C56.6619 52.6481 54.4594 53.3823 53.5538 55.1936L53.4126 55.4489C53.0755 56.0126 52.4103 56.8776 51.4182 57.7595C49.4804 59.482 47.0625 60.5 44 60.5C40.9375 60.5 38.5196 59.482 36.5818 57.7595C35.4243 56.7306 34.7118 55.7247 34.4462 55.1936L34.2329 54.8221C33.228 53.2858 31.2088 52.7128 29.5269 53.5538C27.7156 54.4594 26.9815 56.6619 27.8871 58.4731C28.5382 59.7753 29.7736 61.5194 31.7098 63.2405C34.9283 66.1014 39.0417 67.8333 44 67.8333C48.9583 67.8333 53.0717 66.1014 56.2902 63.2405C58.2264 61.5194 59.4618 59.7753 60.1129 58.4731ZM60.4753 32.5724C60.2635 30.7488 58.7137 29.3333 56.8333 29.3333C54.8083 29.3333 53.1667 30.975 53.1667 33V40.3333L53.1913 40.7609C53.4031 42.5845 54.9529 44 56.8333 44C58.8584 44 60.5 42.3584 60.5 40.3333V33L60.4753 32.5724ZM34.8087 32.5724C34.5969 30.7488 33.0471 29.3333 31.1667 29.3333C29.1416 29.3333 27.5 30.975 27.5 33V40.3333L27.5247 40.7609C27.7365 42.5845 29.2863 44 31.1667 44C33.1917 44 34.8333 42.3584 34.8333 40.3333V33L34.8087 32.5724Z" fill="#F6D0CD"/>
</svg>
