<svg width="104" height="104" viewBox="0 0 104 104" fill="none" xmlns="http://www.w3.org/2000/svg">
<g clip-path="url(#clip0)">
<path d="M25.897 6.99829C-8.63235 26.9389 -8.63233 77.0611 25.897 97.0017C60.4264 116.942 103.822 91.8812 103.822 52C103.822 12.1188 60.4264 -12.9423 25.897 6.99829ZM88.2579 68.6057C88.0699 72.5676 85.9712 72.8287 68.7116 68.1911C69.0928 75.4746 68.4183 83.4959 66.5547 86.764C53.1506 85.3542 22.7921 78.2372 16.0711 73.5251C14.1752 58.3503 13.6812 44.3974 15.7673 32.6928C17.0614 29.8936 30.984 33.7703 35.1275 35.3555C34.7177 28.1891 34.5748 18.6606 36.8862 16.1643C49.582 17.9584 77.2422 25.5316 82.0975 26.9137C85.2931 27.8233 88.3268 27.9295 88.7017 35.3914C89.4772 50.8277 88.4458 64.6438 88.2579 68.6057ZM67.6779 47.1839C68.1093 50.8496 68.7116 68.1911 68.7116 68.1911L39.8512 60.4149C37.5319 59.6746 35.8995 57.6326 35.7204 55.2475L35.1275 35.3555C35.1279 35.3556 42.7156 36.8075 50.9847 38.7886C66.1434 42.4205 67.396 44.7883 67.6779 47.1839Z" fill="#727272"/>
</g>
<defs>
<clipPath id="clip0">
<rect width="104" height="104" fill="white"/>
</clipPath>
</defs>
</svg>
