<svg width="163" height="163" viewBox="0 0 163 163" fill="none" xmlns="http://www.w3.org/2000/svg">
<path d="M150.431 156.714C150.431 153.251 153.252 150.429 156.715 150.429C160.178 150.429 163 153.251 163 156.714C163 160.178 160.178 163 156.715 163C153.252 163 150.431 160.199 150.431 156.714ZM119.113 163C122.576 163 125.398 160.178 125.398 156.714C125.398 153.251 122.576 150.429 119.113 150.429C115.65 150.429 112.828 153.251 112.828 156.714C112.828 160.199 115.629 163 119.113 163ZM81.5109 163C84.974 163 87.7958 160.178 87.7958 156.714C87.7958 153.251 84.974 150.429 81.5109 150.429C78.0478 150.429 75.2261 153.251 75.2261 156.714C75.2261 160.199 78.0265 163 81.5109 163ZM43.9087 163C47.3718 163 50.1936 160.178 50.1936 156.714C50.1936 153.251 47.3718 150.429 43.9087 150.429C40.4456 150.429 37.6238 153.251 37.6238 156.714C37.6025 160.199 40.4242 163 43.9087 163ZM6.2851 163C9.74817 163 12.5699 160.178 12.5699 156.714C12.5699 153.251 9.74817 150.429 6.2851 150.429C2.82201 150.429 0.000261227 153.251 0.000261268 156.714C0.00026131 160.199 2.82201 163 6.2851 163ZM156.715 125.393C160.178 125.393 163 122.571 163 119.107C163 115.644 160.178 112.821 156.715 112.821C153.252 112.821 150.431 115.644 150.431 119.107C150.431 122.592 153.252 125.393 156.715 125.393ZM119.113 125.393C122.576 125.393 125.398 122.571 125.398 119.107C125.398 115.644 122.576 112.821 119.113 112.821C115.65 112.821 112.828 115.644 112.828 119.107C112.828 122.592 115.629 125.393 119.113 125.393ZM81.5109 125.393C84.974 125.393 87.7958 122.571 87.7958 119.107C87.7958 115.644 84.974 112.821 81.5109 112.821C78.0478 112.821 75.2261 115.644 75.2261 119.107C75.2261 122.592 78.0265 125.393 81.5109 125.393ZM43.9087 125.393C47.3718 125.393 50.1936 122.571 50.1936 119.107C50.1936 115.644 47.3718 112.821 43.9087 112.821C40.4456 112.821 37.6238 115.644 37.6238 119.107C37.6025 122.592 40.4242 125.393 43.9087 125.393ZM6.2851 125.393C9.74817 125.393 12.5699 122.571 12.5699 119.107C12.5699 115.644 9.74817 112.821 6.2851 112.821C2.82201 112.821 0.000260778 115.644 0.00026082 119.107C0.000260861 122.592 2.82201 125.393 6.2851 125.393ZM156.715 87.7857C160.178 87.7857 163 84.9635 163 81.5C163 78.0365 160.178 75.2143 156.715 75.2143C153.252 75.2143 150.431 78.0365 150.431 81.5C150.431 84.9635 153.252 87.7857 156.715 87.7857ZM119.113 87.7857C122.576 87.7857 125.398 84.9635 125.398 81.5C125.398 78.0365 122.576 75.2143 119.113 75.2143C115.65 75.2143 112.828 78.0365 112.828 81.5C112.828 84.9635 115.629 87.7857 119.113 87.7857ZM81.5109 87.7857C84.974 87.7857 87.7958 84.9635 87.7958 81.5C87.7958 78.0365 84.974 75.2143 81.5109 75.2143C78.0478 75.2143 75.2261 78.0365 75.2261 81.5C75.2261 84.9635 78.0265 87.7857 81.5109 87.7857ZM43.9087 87.7857C47.3718 87.7857 50.1936 84.9635 50.1936 81.5C50.1936 78.0365 47.3718 75.2143 43.9087 75.2143C40.4456 75.2143 37.6238 78.0365 37.6238 81.5C37.6238 84.9635 40.4242 87.7857 43.9087 87.7857ZM6.2851 87.7857C9.74817 87.7857 12.5699 84.9635 12.5699 81.5C12.5699 78.0365 9.74817 75.2143 6.2851 75.2143C2.82201 75.2143 0.00026033 78.0365 0.000260371 81.5C0.000260413 84.9635 2.82201 87.7857 6.2851 87.7857ZM156.715 50.1785C160.178 50.1785 163 47.3564 163 43.8928C163 40.4293 160.178 37.6072 156.715 37.6072C153.252 37.6072 150.431 40.4293 150.431 43.8928C150.431 47.3564 153.252 50.1785 156.715 50.1785ZM119.113 50.1785C122.576 50.1785 125.398 47.3564 125.398 43.8928C125.398 40.4293 122.576 37.6072 119.113 37.6072C115.65 37.6072 112.828 40.4293 112.828 43.8928C112.828 47.3564 115.629 50.1785 119.113 50.1785ZM81.5109 50.1785C84.974 50.1785 87.7958 47.3564 87.7958 43.8928C87.7958 40.4293 84.974 37.6072 81.5109 37.6072C78.0478 37.6072 75.2261 40.4293 75.2261 43.8928C75.2261 47.3564 78.0265 50.1785 81.5109 50.1785ZM43.9087 50.1785C47.3718 50.1785 50.1936 47.3564 50.1936 43.8928C50.1936 40.4293 47.3718 37.6072 43.9087 37.6072C40.4456 37.6072 37.6238 40.4293 37.6238 43.8928C37.6025 47.3564 40.4242 50.1785 43.9087 50.1785ZM6.2851 50.1785C9.74817 50.1785 12.5699 47.3564 12.5699 43.8928C12.5699 40.4293 9.74817 37.6072 6.2851 37.6072C2.82201 37.6072 0.000259882 40.4293 0.000259923 43.8928C0.000259964 47.3564 2.82201 50.1785 6.2851 50.1785ZM156.715 12.5714C160.178 12.5714 163 9.74922 163 6.28568C163 2.82215 160.178 3.36491e-08 156.715 7.4946e-08C153.252 1.16243e-07 150.431 2.82215 150.431 6.28568C150.431 9.74922 153.252 12.5714 156.715 12.5714ZM119.113 12.5714C122.576 12.5714 125.398 9.74922 125.398 6.28568C125.398 2.82215 122.576 4.82051e-07 119.113 5.23348e-07C115.65 5.64645e-07 112.828 2.82215 112.828 6.28568C112.828 9.74922 115.629 12.5714 119.113 12.5714ZM81.5109 12.5714C84.974 12.5714 87.7958 9.74922 87.7958 6.28568C87.7958 2.82215 84.974 9.30453e-07 81.5109 9.7175e-07C78.0478 1.01305e-06 75.2261 2.82215 75.2261 6.28568C75.2261 9.74922 78.0265 12.5714 81.5109 12.5714ZM43.9087 12.5714C47.3718 12.5714 50.1936 9.74922 50.1936 6.28568C50.1936 2.82215 47.3718 1.37886e-06 43.9087 1.42015e-06C40.4456 1.46145e-06 37.6238 2.82215 37.6238 6.28568C37.6025 9.74922 40.4242 12.5714 43.9087 12.5714ZM6.2851 12.5714C9.74817 12.5714 12.5699 9.74922 12.5699 6.28568C12.5699 2.82215 9.74817 1.82751e-06 6.2851 1.86881e-06C2.82201 1.91011e-06 0.000259433 2.82215 0.000259474 6.28569C0.000259516 9.74922 2.82201 12.5714 6.2851 12.5714Z" fill="url(#paint0_linear)"/>
<defs>
<linearGradient id="paint0_linear" x1="0.000262037" y1="163" x2="143.596" y2="31.0476" gradientUnits="userSpaceOnUse">
<stop stop-color="#090C24"/>
<stop offset="1" stop-color="#090C24" stop-opacity="0.2"/>
</linearGradient>
</defs>
</svg>
